<svg xmlns="http://www.w3.org/2000/svg" xmlns:xlink="http://www.w3.org/1999/xlink" contentStyleType="text/css" data-diagram-type="CLASS" height="980px" preserveAspectRatio="none" style="width:2206px;height:980px;background:#FFFFFF;" version="1.1" viewBox="0 0 2206 980" width="2206px" zoomAndPan="magnify"><?plantuml 1.2026.3beta6?><defs><filter height="300%" id="f146xmppl1dxfp" width="300%" x="-1" y="-1"><feGaussianBlur result="blurOut" stdDeviation="2"/><feColorMatrix in="blurOut" result="blurOut2" type="matrix" values="0 0 0 0 0 0 0 0 0 0 0 0 0 0 0 0 0 0 .4 0"/><feOffset dx="4" dy="4" in="blurOut2" result="blurOut3"/><feBlend in="SourceGraphic" in2="blurOut3" mode="normal"/></filter></defs><g><g class="title" data-source-line="6"><text fill="#000000" font-family="sans-serif" font-size="14" font-weight="700" lengthAdjust="spacing" textLength="453.2568" x="872.8716" y="22.9951">Arquitetura do Framework de Pathfinding (IA para Jogos)</text></g><!--cluster Core - Representa??o do Mundo--><g class="cluster" data-qualified-name="Core - Representa..o do Mundo" data-source-line="8" id="ent0002"><rect fill="#E8F8F5" filter="url(#f146xmppl1dxfp)" height="196.79" rx="2.5" ry="2.5" style="stroke:#000000;stroke-width:1.5;" width="390" x="7" y="550.4469"/><text fill="#000000" font-family="sans-serif" font-size="14" font-weight="700" lengthAdjust="spacing" textLength="252.7383" x="75.6309" y="565.442">Core - Representa&#231;&#227;o do Mundo</text></g><!--cluster Core - Estrutura de Dados--><g class="cluster" data-qualified-name="Core - Estrutura de Dados" data-source-line="19" id="ent0004"><rect fill="#FEF9E7" filter="url(#f146xmppl1dxfp)" height="180.48" rx="2.5" ry="2.5" style="stroke:#000000;stroke-width:1.5;" width="553" x="1633" y="780.2369"/><text fill="#000000" font-family="sans-serif" font-size="14" font-weight="700" lengthAdjust="spacing" textLength="204.627" x="1807.1865" y="795.232">Core - Estrutura de Dados</text></g><!--cluster Core - Busca e Algoritmos--><g class="cluster" data-qualified-name="Core - Busca e Algoritmos" data-source-line="36" id="ent0007"><rect fill="#EBF5FB" filter="url(#f146xmppl1dxfp)" height="440.86" rx="2.5" ry="2.5" style="stroke:#000000;stroke-width:1.5;" width="1671" x="421" y="290.0769"/><text fill="#000000" font-family="sans-serif" font-size="14" font-weight="700" lengthAdjust="spacing" textLength="204.0186" x="1154.4907" y="305.072">Core - Busca e Algoritmos</text></g><!--cluster Gerenciamento e UI (Godot)--><g class="cluster" data-qualified-name="Gerenciamento e UI .Godot." data-source-line="74" id="ent0013"><rect fill="#FDEDEC" filter="url(#f146xmppl1dxfp)" height="196.78" rx="2.5" ry="2.5" style="stroke:#000000;stroke-width:1.5;" width="237" x="358" y="44.2969"/><text fill="#000000" font-family="sans-serif" font-size="14" font-weight="700" lengthAdjust="spacing" textLength="221.1904" x="365.9048" y="59.292">Gerenciamento e UI (Godot)</text></g><!--class GridGraph--><g class="entity" data-qualified-name="Core - Representa..o do Mundo.GridGraph" data-source-line="9" id="ent0003"><rect fill="#F1F1F1" filter="url(#f146xmppl1dxfp)" height="145.7813" rx="2.5" ry="2.5" style="stroke:#181818;stroke-width:0.5;" width="357.666" x="23.17" y="585.4469"/><ellipse cx="161.5909" cy="601.4469" fill="#ADD1B2" rx="11" ry="11" style="stroke:#181818;stroke-width:1;"/><path d="M164.5596,607.0875 Q163.9815,607.3844 163.3409,607.525 Q162.7003,607.6813 161.9971,607.6813 Q159.4971,607.6813 158.169,606.0406 Q156.8565,604.3844 156.8565,601.2594 Q156.8565,598.1344 158.169,596.4781 Q159.4971,594.8219 161.9971,594.8219 Q162.7003,594.8219 163.3409,594.9781 Q163.9971,595.1344 164.5596,595.4313 L164.5596,598.15 Q163.9346,597.5719 163.3409,597.3063 Q162.7471,597.025 162.1221,597.025 Q160.7784,597.025 160.0909,598.1031 Q159.4034,599.1656 159.4034,601.2594 Q159.4034,603.3531 160.0909,604.4313 Q160.7784,605.4938 162.1221,605.4938 Q162.7471,605.4938 163.3409,605.2281 Q163.9346,604.9469 164.5596,604.3688 L164.5596,607.0875 Z " fill="#000000"/><text fill="#000000" font-family="sans-serif" font-size="14" lengthAdjust="spacing" textLength="72.3242" x="182.0909" y="606.2936">GridGraph</text><line style="stroke:#181818;stroke-width:0.5;" x1="24.17" x2="379.836" y1="617.4469" y2="617.4469"/><text fill="#000000" font-family="sans-serif" font-size="14" lengthAdjust="spacing" textLength="66.5957" x="29.17" y="634.442">+cols: int</text><text fill="#000000" font-family="sans-serif" font-size="14" lengthAdjust="spacing" textLength="72.2148" x="29.17" y="650.7389">+rows: int</text><text fill="#000000" font-family="sans-serif" font-size="14" lengthAdjust="spacing" textLength="127.8047" x="29.17" y="667.0357">+walls: Dictionary</text><line style="stroke:#181818;stroke-width:0.5;" x1="24.17" x2="379.836" y1="674.3375" y2="674.3375"/><text fill="#000000" font-family="sans-serif" font-size="14" lengthAdjust="spacing" textLength="330.5723" x="29.17" y="691.3326">+get_neighbors(cell: Vector2i): Array[Vector2i]</text><text fill="#000000" font-family="sans-serif" font-size="14" lengthAdjust="spacing" textLength="224.6221" x="29.17" y="707.6295">+in_bounds(cell: Vector2i): bool</text><text fill="#000000" font-family="sans-serif" font-size="14" lengthAdjust="spacing" textLength="345.666" x="29.17" y="723.9264">+cost(from_cell: Vector2i, to_cell: Vector2i): float</text></g><!--class SearchNode--><g class="entity" data-qualified-name="Core - Estrutura de Dados.SearchNode" data-source-line="20" id="ent0005"><rect fill="#F1F1F1" filter="url(#f146xmppl1dxfp)" height="129.4844" rx="2.5" ry="2.5" style="stroke:#181818;stroke-width:0.5;" width="164.0381" x="1933.98" y="815.2369"/><ellipse cx="1970.1726" cy="831.2369" fill="#ADD1B2" rx="11" ry="11" style="stroke:#181818;stroke-width:1;"/><path d="M1973.1414,836.8775 Q1972.5633,837.1744 1971.9226,837.315 Q1971.282,837.4712 1970.5789,837.4712 Q1968.0789,837.4712 1966.7508,835.8306 Q1965.4383,834.1744 1965.4383,831.0494 Q1965.4383,827.9244 1966.7508,826.2681 Q1968.0789,824.6119 1970.5789,824.6119 Q1971.282,824.6119 1971.9226,824.7681 Q1972.5789,824.9244 1973.1414,825.2212 L1973.1414,827.94 Q1972.5164,827.3619 1971.9226,827.0962 Q1971.3289,826.815 1970.7039,826.815 Q1969.3601,826.815 1968.6726,827.8931 Q1967.9851,828.9556 1967.9851,831.0494 Q1967.9851,833.1431 1968.6726,834.2212 Q1969.3601,835.2837 1970.7039,835.2837 Q1971.3289,835.2837 1971.9226,835.0181 Q1972.5164,834.7369 1973.1414,834.1587 L1973.1414,836.8775 Z " fill="#000000"/><text fill="#000000" font-family="sans-serif" font-size="14" lengthAdjust="spacing" textLength="84.9434" x="1988.8821" y="836.0836">SearchNode</text><line style="stroke:#181818;stroke-width:0.5;" x1="1934.98" x2="2097.0181" y1="847.2369" y2="847.2369"/><text fill="#000000" font-family="sans-serif" font-size="14" lengthAdjust="spacing" textLength="103.4824" x="1939.98" y="864.232">+cell: Vector2i</text><text fill="#000000" font-family="sans-serif" font-size="14" lengthAdjust="spacing" textLength="152.0381" x="1939.98" y="880.5289">+parent: SearchNode</text><text fill="#000000" font-family="sans-serif" font-size="14" lengthAdjust="spacing" textLength="97.2822" x="1939.98" y="896.8257">+g_cost: float</text><text fill="#000000" font-family="sans-serif" font-size="14" lengthAdjust="spacing" textLength="97.2686" x="1939.98" y="913.1226">+h_cost: float</text><line style="stroke:#181818;stroke-width:0.5;" x1="1934.98" x2="2097.0181" y1="920.4244" y2="920.4244"/><text fill="#000000" font-family="sans-serif" font-size="14" lengthAdjust="spacing" textLength="104.248" x="1939.98" y="937.4195">+f_cost(): float</text></g><!--class PriorityQueue--><g class="entity" data-qualified-name="Core - Estrutura de Dados.PriorityQueue" data-source-line="28" id="ent0006"><rect fill="#F1F1F1" filter="url(#f146xmppl1dxfp)" height="113.1875" rx="2.5" ry="2.5" style="stroke:#181818;stroke-width:0.5;" width="249.4805" x="1649.26" y="823.3769"/><ellipse cx="1721.7175" cy="839.3769" fill="#ADD1B2" rx="11" ry="11" style="stroke:#181818;stroke-width:1;"/><path d="M1724.6863,845.0175 Q1724.1081,845.3144 1723.4675,845.455 Q1722.8269,845.6112 1722.1238,845.6112 Q1719.6238,845.6112 1718.2956,843.9706 Q1716.9831,842.3144 1716.9831,839.1894 Q1716.9831,836.0644 1718.2956,834.4081 Q1719.6238,832.7519 1722.1238,832.7519 Q1722.8269,832.7519 1723.4675,832.9081 Q1724.1238,833.0644 1724.6863,833.3612 L1724.6863,836.08 Q1724.0613,835.5019 1723.4675,835.2362 Q1722.8738,834.955 1722.2488,834.955 Q1720.905,834.955 1720.2175,836.0331 Q1719.53,837.0956 1719.53,839.1894 Q1719.53,841.2831 1720.2175,842.3612 Q1720.905,843.4237 1722.2488,843.4237 Q1722.8738,843.4237 1723.4675,843.1581 Q1724.0613,842.8769 1724.6863,842.2987 L1724.6863,845.0175 Z " fill="#000000"/><text fill="#000000" font-family="sans-serif" font-size="14" lengthAdjust="spacing" textLength="96.0654" x="1742.2175" y="844.2236">PriorityQueue</text><line style="stroke:#181818;stroke-width:0.5;" x1="1650.26" x2="1897.7405" y1="855.3769" y2="855.3769"/><text fill="#000000" font-family="sans-serif" font-size="14" lengthAdjust="spacing" textLength="206.9238" x="1655.26" y="872.372">-_elements: Array[Dictionary]</text><line style="stroke:#181818;stroke-width:0.5;" x1="1650.26" x2="1897.7405" y1="879.6737" y2="879.6737"/><text fill="#000000" font-family="sans-serif" font-size="14" lengthAdjust="spacing" textLength="124.8242" x="1655.26" y="896.6689">+is_empty(): bool</text><text fill="#000000" font-family="sans-serif" font-size="14" lengthAdjust="spacing" textLength="237.4805" x="1655.26" y="912.9657">+put(item: Variant, priority: float)</text><text fill="#000000" font-family="sans-serif" font-size="14" lengthAdjust="spacing" textLength="144.1836" x="1655.26" y="929.2626">+get_item(): Variant</text></g><!--class SearchAlgorithm--><g class="entity" data-qualified-name="Core - Busca e Algoritmos.SearchAlgorithm" data-source-line="37" id="ent0008"><rect fill="#F1F1F1" filter="url(#f146xmppl1dxfp)" height="178.375" rx="2.5" ry="2.5" style="stroke:#181818;stroke-width:0.5;" width="362.8682" x="846.57" y="325.0769"/><ellipse cx="965.2692" cy="341.0769" fill="#A9DCDF" rx="11" ry="11" style="stroke:#181818;stroke-width:1;"/><path d="M965.3786,336.4206 L964.2223,341.4988 L966.5505,341.4988 L965.3786,336.4206 Z M963.8942,334.1863 L966.8786,334.1863 L970.238,346.5769 L967.7848,346.5769 L967.0192,343.5144 L963.738,343.5144 L962.988,346.5769 L960.5505,346.5769 L963.8942,334.1863 Z " fill="#000000"/><text fill="#000000" font-family="sans-serif" font-size="14" font-style="italic" lengthAdjust="spacing" textLength="116.9697" x="985.7692" y="345.9236">SearchAlgorithm</text><line style="stroke:#181818;stroke-width:0.5;" x1="847.57" x2="1208.4382" y1="357.0769" y2="357.0769"/><text fill="#000000" font-family="sans-serif" font-size="14" lengthAdjust="spacing" textLength="134.2031" x="852.57" y="374.072">+graph: GridGraph</text><text fill="#000000" font-family="sans-serif" font-size="14" lengthAdjust="spacing" textLength="220.4043" x="852.57" y="390.3689">+frontier: Array / PriorityQueue</text><text fill="#000000" font-family="sans-serif" font-size="14" lengthAdjust="spacing" textLength="139.0498" x="852.57" y="406.6657">+visited: Dictionary</text><text fill="#000000" font-family="sans-serif" font-size="14" lengthAdjust="spacing" textLength="117.5439" x="852.57" y="422.9626">+cancelled: bool</text><line style="stroke:#181818;stroke-width:0.5;" x1="847.57" x2="1208.4382" y1="430.2644" y2="430.2644"/><text fill="#000000" font-family="sans-serif" font-size="14" lengthAdjust="spacing" textLength="350.8682" x="852.57" y="447.2595">+solve(start, goal, tree, callback): Array[Vector2i]</text><text fill="#000000" font-family="sans-serif" font-size="14" lengthAdjust="spacing" textLength="300.0635" x="852.57" y="463.5564">#_reconstruct_path(node): Array[Vector2i]</text><text fill="#000000" font-family="sans-serif" font-size="14" font-style="italic" lengthAdjust="spacing" textLength="264.9814" x="852.57" y="479.8532">#_add_to_frontier(node: SearchNode)</text><text fill="#000000" font-family="sans-serif" font-size="14" font-style="italic" lengthAdjust="spacing" textLength="245.5127" x="852.57" y="496.1501">#_get_from_frontier(): SearchNode</text></g><!--class BFS--><g class="entity" data-qualified-name="Core - Busca e Algoritmos.BFS" data-source-line="48" id="ent0009"><rect fill="#F1F1F1" filter="url(#f146xmppl1dxfp)" height="80.5938" rx="2.5" ry="2.5" style="stroke:#181818;stroke-width:0.5;" width="369.6016" x="437.2" y="618.0469"/><ellipse cx="604.4788" cy="634.0469" fill="#ADD1B2" rx="11" ry="11" style="stroke:#181818;stroke-width:1;"/><path d="M607.4476,639.6875 Q606.8694,639.9844 606.2288,640.125 Q605.5882,640.2812 604.8851,640.2812 Q602.3851,640.2812 601.0569,638.6406 Q599.7444,636.9844 599.7444,633.8594 Q599.7444,630.7344 601.0569,629.0781 Q602.3851,627.4219 604.8851,627.4219 Q605.5882,627.4219 606.2288,627.5781 Q606.8851,627.7344 607.4476,628.0312 L607.4476,630.75 Q606.8226,630.1719 606.2288,629.9062 Q605.6351,629.625 605.0101,629.625 Q603.6663,629.625 602.9788,630.7031 Q602.2913,631.7656 602.2913,633.8594 Q602.2913,635.9531 602.9788,637.0312 Q603.6663,638.0937 605.0101,638.0937 Q605.6351,638.0937 606.2288,637.8281 Q606.8226,637.5469 607.4476,636.9687 L607.4476,639.6875 Z " fill="#000000"/><text fill="#000000" font-family="sans-serif" font-size="14" lengthAdjust="spacing" textLength="26.5439" x="624.9788" y="638.8936">BFS</text><line style="stroke:#181818;stroke-width:0.5;" x1="438.2" x2="805.8016" y1="650.0469" y2="650.0469"/><line style="stroke:#181818;stroke-width:0.5;" x1="438.2" x2="805.8016" y1="658.0469" y2="658.0469"/><text fill="#000000" font-family="sans-serif" font-size="14" lengthAdjust="spacing" textLength="357.6016" x="443.2" y="675.042">#_add_to_frontier(node: SearchNode) &#171;Fila (FIFO)&#187;</text><text fill="#000000" font-family="sans-serif" font-size="14" lengthAdjust="spacing" textLength="245.5127" x="443.2" y="691.3389">#_get_from_frontier(): SearchNode</text></g><!--class Dijkstra--><g class="entity" data-qualified-name="Core - Busca e Algoritmos.Dijkstra" data-source-line="53" id="ent0010"><rect fill="#F1F1F1" filter="url(#f146xmppl1dxfp)" height="96.8906" rx="2.5" ry="2.5" style="stroke:#181818;stroke-width:0.5;" width="372.6914" x="841.65" y="609.8969"/><ellipse cx="996.8531" cy="625.8969" fill="#ADD1B2" rx="11" ry="11" style="stroke:#181818;stroke-width:1;"/><path d="M999.8219,631.5375 Q999.2438,631.8344 998.6031,631.975 Q997.9625,632.1313 997.2594,632.1313 Q994.7594,632.1313 993.4313,630.4906 Q992.1188,628.8344 992.1188,625.7094 Q992.1188,622.5844 993.4313,620.9281 Q994.7594,619.2719 997.2594,619.2719 Q997.9625,619.2719 998.6031,619.4281 Q999.2594,619.5844 999.8219,619.8813 L999.8219,622.6 Q999.1969,622.0219 998.6031,621.7563 Q998.0094,621.475 997.3844,621.475 Q996.0406,621.475 995.3531,622.5531 Q994.6656,623.6156 994.6656,625.7094 Q994.6656,627.8031 995.3531,628.8813 Q996.0406,629.9438 997.3844,629.9438 Q998.0094,629.9438 998.6031,629.6781 Q999.1969,629.3969 999.8219,628.8188 L999.8219,631.5375 Z " fill="#000000"/><text fill="#000000" font-family="sans-serif" font-size="14" lengthAdjust="spacing" textLength="53.7852" x="1017.3531" y="630.7436">Dijkstra</text><line style="stroke:#181818;stroke-width:0.5;" x1="842.65" x2="1213.3414" y1="641.8969" y2="641.8969"/><text fill="#000000" font-family="sans-serif" font-size="14" lengthAdjust="spacing" textLength="128.0576" x="847.65" y="658.892">-pq: PriorityQueue</text><line style="stroke:#181818;stroke-width:0.5;" x1="842.65" x2="1213.3414" y1="666.1938" y2="666.1938"/><text fill="#000000" font-family="sans-serif" font-size="14" lengthAdjust="spacing" textLength="360.6914" x="847.65" y="683.1889">#_add_to_frontier(node: SearchNode) &#171;usa g_cost&#187;</text><text fill="#000000" font-family="sans-serif" font-size="14" lengthAdjust="spacing" textLength="245.5127" x="847.65" y="699.4857">#_get_from_frontier(): SearchNode</text></g><!--class Greedy--><g class="entity" data-qualified-name="Core - Busca e Algoritmos.Greedy" data-source-line="59" id="ent0011"><rect fill="#F1F1F1" filter="url(#f146xmppl1dxfp)" height="113.1875" rx="2.5" ry="2.5" style="stroke:#181818;stroke-width:0.5;" width="372.6777" x="1249.66" y="601.7469"/><ellipse cx="1406.2474" cy="617.7469" fill="#ADD1B2" rx="11" ry="11" style="stroke:#181818;stroke-width:1;"/><path d="M1409.2162,623.3875 Q1408.638,623.6844 1407.9974,623.825 Q1407.3568,623.9812 1406.6537,623.9812 Q1404.1537,623.9812 1402.8255,622.3406 Q1401.513,620.6844 1401.513,617.5594 Q1401.513,614.4344 1402.8255,612.7781 Q1404.1537,611.1219 1406.6537,611.1219 Q1407.3568,611.1219 1407.9974,611.2781 Q1408.6537,611.4344 1409.2162,611.7312 L1409.2162,614.45 Q1408.5912,613.8719 1407.9974,613.6062 Q1407.4037,613.325 1406.7787,613.325 Q1405.4349,613.325 1404.7474,614.4031 Q1404.0599,615.4656 1404.0599,617.5594 Q1404.0599,619.6531 1404.7474,620.7312 Q1405.4349,621.7937 1406.7787,621.7937 Q1407.4037,621.7937 1407.9974,621.5281 Q1408.5912,621.2469 1409.2162,620.6687 L1409.2162,623.3875 Z " fill="#000000"/><text fill="#000000" font-family="sans-serif" font-size="14" lengthAdjust="spacing" textLength="51.0029" x="1426.7474" y="622.5936">Greedy</text><line style="stroke:#181818;stroke-width:0.5;" x1="1250.66" x2="1621.3377" y1="633.7469" y2="633.7469"/><text fill="#000000" font-family="sans-serif" font-size="14" lengthAdjust="spacing" textLength="128.0576" x="1255.66" y="650.742">-pq: PriorityQueue</text><line style="stroke:#181818;stroke-width:0.5;" x1="1250.66" x2="1621.3377" y1="658.0437" y2="658.0437"/><text fill="#000000" font-family="sans-serif" font-size="14" lengthAdjust="spacing" textLength="360.6777" x="1255.66" y="675.0389">#_add_to_frontier(node: SearchNode) &#171;usa h_cost&#187;</text><text fill="#000000" font-family="sans-serif" font-size="14" lengthAdjust="spacing" textLength="245.5127" x="1255.66" y="691.3357">#_get_from_frontier(): SearchNode</text><text fill="#000000" font-family="sans-serif" font-size="14" lengthAdjust="spacing" textLength="285.3389" x="1255.66" y="707.6326">+heuristic(a: Vector2i, b: Vector2i): float</text></g><!--class AStar--><g class="entity" data-qualified-name="Core - Busca e Algoritmos.AStar" data-source-line="66" id="ent0012"><rect fill="#F1F1F1" filter="url(#f146xmppl1dxfp)" height="113.1875" rx="2.5" ry="2.5" style="stroke:#181818;stroke-width:0.5;" width="418.8545" x="1657.57" y="601.7469"/><ellipse cx="1843.6032" cy="617.7469" fill="#ADD1B2" rx="11" ry="11" style="stroke:#181818;stroke-width:1;"/><path d="M1846.572,623.3875 Q1845.9938,623.6844 1845.3532,623.825 Q1844.7126,623.9812 1844.0095,623.9812 Q1841.5095,623.9812 1840.1813,622.3406 Q1838.8688,620.6844 1838.8688,617.5594 Q1838.8688,614.4344 1840.1813,612.7781 Q1841.5095,611.1219 1844.0095,611.1219 Q1844.7126,611.1219 1845.3532,611.2781 Q1846.0095,611.4344 1846.572,611.7312 L1846.572,614.45 Q1845.947,613.8719 1845.3532,613.6062 Q1844.7595,613.325 1844.1345,613.325 Q1842.7907,613.325 1842.1032,614.4031 Q1841.4157,615.4656 1841.4157,617.5594 Q1841.4157,619.6531 1842.1032,620.7312 Q1842.7907,621.7937 1844.1345,621.7937 Q1844.7595,621.7937 1845.3532,621.5281 Q1845.947,621.2469 1846.572,620.6687 L1846.572,623.3875 Z " fill="#000000"/><text fill="#000000" font-family="sans-serif" font-size="14" lengthAdjust="spacing" textLength="38.2881" x="1864.1032" y="622.5936">AStar</text><line style="stroke:#181818;stroke-width:0.5;" x1="1658.57" x2="2075.4245" y1="633.7469" y2="633.7469"/><text fill="#000000" font-family="sans-serif" font-size="14" lengthAdjust="spacing" textLength="128.0576" x="1663.57" y="650.742">-pq: PriorityQueue</text><line style="stroke:#181818;stroke-width:0.5;" x1="1658.57" x2="2075.4245" y1="658.0437" y2="658.0437"/><text fill="#000000" font-family="sans-serif" font-size="14" lengthAdjust="spacing" textLength="406.8545" x="1663.57" y="675.0389">#_add_to_frontier(node: SearchNode) &#171;usa f_cost = g+h&#187;</text><text fill="#000000" font-family="sans-serif" font-size="14" lengthAdjust="spacing" textLength="245.5127" x="1663.57" y="691.3357">#_get_from_frontier(): SearchNode</text><text fill="#000000" font-family="sans-serif" font-size="14" lengthAdjust="spacing" textLength="285.3389" x="1663.57" y="707.6326">+heuristic(a: Vector2i, b: Vector2i): float</text></g><!--class GridManager--><g class="entity" data-qualified-name="Gerenciamento e UI .Godot..GridManager" data-source-line="75" id="ent0014"><rect fill="#F1F1F1" filter="url(#f146xmppl1dxfp)" height="145.7813" rx="2.5" ry="2.5" style="stroke:#181818;stroke-width:0.5;" width="155.7461" x="398.13" y="79.2969"/><ellipse cx="427.9796" cy="95.2969" fill="#ADD1B2" rx="11" ry="11" style="stroke:#181818;stroke-width:1;"/><path d="M430.9483,100.9375 Q430.3702,101.2344 429.7296,101.375 Q429.0889,101.5313 428.3858,101.5313 Q425.8858,101.5313 424.5577,99.8906 Q423.2452,98.2344 423.2452,95.1094 Q423.2452,91.9844 424.5577,90.3281 Q425.8858,88.6719 428.3858,88.6719 Q429.0889,88.6719 429.7296,88.8281 Q430.3858,88.9844 430.9483,89.2813 L430.9483,92 Q430.3233,91.4219 429.7296,91.1563 Q429.1358,90.875 428.5108,90.875 Q427.1671,90.875 426.4796,91.9531 Q425.7921,93.0156 425.7921,95.1094 Q425.7921,97.2031 426.4796,98.2813 Q427.1671,99.3438 428.5108,99.3438 Q429.1358,99.3438 429.7296,99.0781 Q430.3233,98.7969 430.9483,98.2188 L430.9483,100.9375 Z " fill="#000000"/><text fill="#000000" font-family="sans-serif" font-size="14" lengthAdjust="spacing" textLength="90.7471" x="445.2795" y="100.1436">GridManager</text><line style="stroke:#181818;stroke-width:0.5;" x1="399.13" x2="552.8761" y1="111.2969" y2="111.2969"/><text fill="#000000" font-family="sans-serif" font-size="14" lengthAdjust="spacing" textLength="143.7461" x="404.13" y="128.292">+start_pos: Vector2i</text><text fill="#000000" font-family="sans-serif" font-size="14" lengthAdjust="spacing" textLength="141.0596" x="404.13" y="144.5889">+goal_pos: Vector2i</text><line style="stroke:#181818;stroke-width:0.5;" x1="399.13" x2="552.8761" y1="151.8906" y2="151.8906"/><text fill="#000000" font-family="sans-serif" font-size="14" lengthAdjust="spacing" textLength="110.8105" x="404.13" y="168.8857">+update_path()</text><text fill="#000000" font-family="sans-serif" font-size="14" lengthAdjust="spacing" textLength="112.2939" x="404.13" y="185.1826">+clear_visuals()</text><text fill="#000000" font-family="sans-serif" font-size="14" lengthAdjust="spacing" textLength="57.6475" x="404.13" y="201.4795">-_draw()</text><text fill="#000000" font-family="sans-serif" font-size="14" lengthAdjust="spacing" textLength="98.8613" x="404.13" y="217.7764">-_input(event)</text></g><!--reverse link SearchAlgorithm to BFS--><g class="link" data-entity-1="ent0008" data-entity-2="ent0009" data-link-type="extension" data-source-line="86" id="lnk15"><path codeLine="86" d="M863.9504,513.0764 C798.5204,552.0964 740.4,586.7469 688.72,617.5569" fill="none" id="SearchAlgorithm-backto-BFS" style="stroke:#181818;stroke-width:1;"/><polygon fill="none" points="879.41,503.8569,860.8772,507.9232,867.0236,518.2296,879.41,503.8569" style="stroke:#181818;stroke-width:1;"/></g><!--reverse link SearchAlgorithm to Dijkstra--><g class="link" data-entity-1="ent0008" data-entity-2="ent0010" data-link-type="extension" data-source-line="87" id="lnk16"><path codeLine="87" d="M1028,521.6869 C1028,557.4769 1028,579.3869 1028,609.5569" fill="none" id="SearchAlgorithm-backto-Dijkstra" style="stroke:#181818;stroke-width:1;"/><polygon fill="none" points="1028,503.6869,1022,521.6869,1034,521.6869,1028,503.6869" style="stroke:#181818;stroke-width:1;"/></g><!--reverse link SearchAlgorithm to Greedy--><g class="link" data-entity-1="ent0008" data-entity-2="ent0011" data-link-type="extension" data-source-line="88" id="lnk17"><path codeLine="88" d="M1192.8007,513.041 C1247.7507,545.641 1292.93,572.4569 1341.69,601.3869" fill="none" id="SearchAlgorithm-backto-Greedy" style="stroke:#181818;stroke-width:1;"/><polygon fill="none" points="1177.32,503.8569,1189.7393,518.2013,1195.8621,507.8808,1177.32,503.8569" style="stroke:#181818;stroke-width:1;"/></g><!--reverse link SearchAlgorithm to AStar--><g class="link" data-entity-1="ent0008" data-entity-2="ent0012" data-link-type="extension" data-source-line="89" id="lnk18"><path codeLine="89" d="M1227.5683,443.0356 C1351.1383,463.0556 1499.29,493.1969 1640,542.4469 C1684.3,557.9569 1730.92,580.3869 1770.32,601.3169" fill="none" id="SearchAlgorithm-backto-AStar" style="stroke:#181818;stroke-width:1;"/><polygon fill="none" points="1209.8,440.1569,1226.6087,448.9584,1228.5279,437.1128,1209.8,440.1569" style="stroke:#181818;stroke-width:1;"/></g><!--reverse link Dijkstra to PriorityQueue--><g class="link" data-entity-1="ent0010" data-entity-2="ent0006" data-link-type="composition" data-source-line="92" id="lnk19"><path codeLine="92" d="M1129.7097,712.4587 C1164.4097,729.3487 1193.98,742.1269 1232,755.2369 C1371.5,803.3169 1537.67,838.0969 1648.91,858.3169" fill="none" id="Dijkstra-backto-PriorityQueue" style="stroke:#181818;stroke-width:1;"/><polygon fill="#181818" points="1118.92,707.2069,1122.5643,713.4294,1129.7097,712.4587,1126.0655,706.2362,1118.92,707.2069" style="stroke:#181818;stroke-width:1;"/></g><!--reverse link Greedy to PriorityQueue--><g class="link" data-entity-1="ent0011" data-entity-2="ent0006" data-link-type="composition" data-source-line="93" id="lnk20"><path codeLine="93" d="M1532.232,721.8757 C1582.982,754.8557 1636.92,789.8969 1687.7,822.8969" fill="none" id="Greedy-backto-PriorityQueue" style="stroke:#181818;stroke-width:1;"/><polygon fill="#181818" points="1522.17,715.3369,1525.0214,721.9603,1532.232,721.8757,1529.3806,715.2523,1522.17,715.3369" style="stroke:#181818;stroke-width:1;"/></g><!--reverse link AStar to PriorityQueue--><g class="link" data-entity-1="ent0012" data-entity-2="ent0006" data-link-type="composition" data-source-line="94" id="lnk21"><path codeLine="94" d="M1838.611,726.3871 C1824.621,759.4271 1811.65,790.0569 1797.67,823.0869" fill="none" id="AStar-backto-PriorityQueue" style="stroke:#181818;stroke-width:1;"/><polygon fill="#181818" points="1843.29,715.3369,1837.2671,719.3023,1838.611,726.3871,1844.6339,722.4216,1843.29,715.3369" style="stroke:#181818;stroke-width:1;"/></g><!--reverse link SearchAlgorithm to GridGraph--><g class="link" data-entity-1="ent0008" data-entity-2="ent0003" data-link-type="aggregation" data-source-line="96" id="lnk22"><path codeLine="96" d="M834.2643,441.8052 C711.7543,461.6452 559.7,492.6269 421,542.4469 C389.08,553.9169 356,569.2469 325.53,584.9669" fill="none" id="SearchAlgorithm-backto-GridGraph" style="stroke:#181818;stroke-width:1;"/><polygon fill="none" points="846.11,439.8869,839.5477,436.8975,834.2643,441.8052,840.8266,444.7946,846.11,439.8869" style="stroke:#181818;stroke-width:1;"/></g><!--reverse link SearchAlgorithm to SearchNode--><g class="link" data-entity-1="ent0008" data-entity-2="ent0005" data-link-type="aggregation" data-source-line="97" id="lnk23"><path codeLine="97" d="M1221.7221,424.6612 C1510.7021,440.4412 2036.4,477.5769 2094,542.4469 C2156.78,613.1769 2120.25,664.3769 2094,755.2369 C2088.01,775.9669 2077.4,796.5769 2065.89,814.8569" fill="none" id="SearchAlgorithm-backto-SearchNode" style="stroke:#181818;stroke-width:1;"/><polygon fill="none" points="1209.74,424.0069,1215.513,428.3281,1221.7221,424.6612,1215.9492,420.34,1209.74,424.0069" style="stroke:#181818;stroke-width:1;"/></g><!--reverse link SearchNode to SearchNode--><g class="link" data-entity-1="ent0005" data-entity-2="ent0005" data-link-type="aggregation" data-source-line="98" id="lnk24"><path codeLine="98" d="M2110.2496,859.521 C2130.1796,861.161 2133.02,867.3169 2133.02,879.9769 C2133.02,892.6369 2118.22,899.7769 2098.29,901.4069" fill="none" id="SearchNode-backto-SearchNode" style="stroke:#181818;stroke-width:1;"/><polygon fill="none" points="2098.29,858.5369,2103.9417,863.0155,2110.2496,859.521,2104.5978,855.0424,2098.29,858.5369" style="stroke:#181818;stroke-width:1;"/><text fill="#000000" font-family="sans-serif" font-size="13" lengthAdjust="spacing" textLength="42.8975" x="2139.02" y="884.5438">parent</text></g><!--link GridManager to GridGraph--><g class="link" data-entity-1="ent0014" data-entity-2="ent0003" data-link-type="dependency" data-source-line="100" id="lnk25"><path codeLine="100" d="M404.08,225.4969 C388.68,243.1369 373.36,262.5669 361,282.0769 C298.81,380.2569 252.8829,501.24 226.5829,579.43" fill="none" id="GridManager-to-GridGraph" style="stroke:#181818;stroke-width:1;"/><polygon fill="#181818" points="224.67,585.1169,231.3306,577.8617,226.264,580.3778,223.748,575.3113,224.67,585.1169" style="stroke:#181818;stroke-width:1;"/><text fill="#000000" font-family="sans-serif" font-size="13" lengthAdjust="spacing" textLength="58.8745" x="362" y="418.8338">Instancia</text></g><!--link GridManager to SearchAlgorithm--><g class="link" data-entity-1="ent0014" data-entity-2="ent0008" data-link-type="dependency" data-source-line="101" id="lnk26"><path codeLine="101" d="M554.21,190.0369 C629.83,225.6669 741.7523,278.3996 840.7423,325.0396" fill="none" id="GridManager-to-SearchAlgorithm" style="stroke:#181818;stroke-width:1;"/><polygon fill="#181818" points="846.17,327.5969,839.7333,320.1424,841.6469,325.4658,836.3235,327.3794,846.17,327.5969" style="stroke:#181818;stroke-width:1;"/><text fill="#000000" font-family="sans-serif" font-size="13" lengthAdjust="spacing" textLength="115.1147" x="719" y="270.1438">Gerencia/Executa</text></g><?plantuml-src lLRRRjj647tdLmoKXrAr1HS5WgQ2Qy2sH5K5Scc4vAKeYD5oHMvDxJAxIojAwg_fGpx4FzPPaZAN9XMaRL0-pcNtp9apipGtGXQeSGiiHsCkhTLYNLg-P4gkn0SEtmNc8MIhf6APLbiE6ymDzrmcmqJjX4p1wj9t5CXkCEKhkyyvQCuioZJdGM259SEbVbSAossf4H854MNmdT8ta71uXJRR29cuGyFb9RZpu1ULAZCEWkPO65qhpM42htcXkU7Iulsd-x-KE-nvAHCrWYVpPz6pw2by382-gafOQ94iD1PPOtNV2LEvcOAGjZLfjNjisc7kmcQ2MQ4awdthIhcD9HTfjbRQX8pd-HJUKiLAVo_6KwfLu_wtW-7tDa_8UAq8x43EMgdSHsXik27-usxWALWLzt8tkS8Q-5rmrsTiRgXJDV4SPjGzGrn5y-Z7-GyThbOSDSjUA8hooUhSrjgfITI4gPVbyHEx0dnWbJaRDcygS_Ye40_OAosK5dR_QybB7ziavZdV4WfpuBnjbi-wYVcsiFkmHtDHsf14kQNwK0kKzXIAvgu6pBZRT1ViZcd2ZtD-LHg6GBBFKtVSjk9yVXKzZQwQ0d1DRK5cE-GtuTdMxq3gz3jjfUmnfvMqWkkcV3ZhKjK6tWf3q9DXDJEKhidEtQN7gFoMXyQY9c9IXJd9JtD-2en6OqqLVqRhJs9Q0KewwJ4R5pJXeIIDV2RZuu6HEqh698b9weS2grnVQ-FXDDUZQcmU4iSzXNQaTHMjFAg_u5uuFuT8v0XXj8nUZk7Ymil-nzVFn1yt3hqlwkBTz4WRln1UQH3g2VoFw1RKx6J_rR5b_n9RlKDugOMnWeNehyNrqONerNEv8Yb_zNBgzGK_GNgI_Lz5-HjdmMaHCu5k4IfQEM-M42vKekpOhVdPV3Q_xZs9pr5Ihi_5IJNcSQ7CqB9tmt_CLnO9MbwFkBSkMKw5nhHuIlg1y1oJED6uwnZe3u8MCR-b0iPjWT_GKvyZSzkgAisuv-jdhb7UVyBWyRuy_tCoSTCyx3ZCsR2trlcmhzBC4J3NQakSYEe_vEoDKS73E7zBcLrXDRFKTzIYxDjxS5I5zF0637azQNblUTS3KnZLJ_Se27mfJ2ONtjyIHIrfUQCJrgWNz_ZoQQl2i_bxpagBexy1?></g></svg>